# xmcd
#
# Track frame offsets:
#	150
#	15720
#	29401
#	42667
#	56129
#	72524
#	87006
#	104068
#	121612
#	138200
#	153152
#	167336
#	182612
#	200762
#	216598
#	232445
#	246599
#	259946
#	273468
#	291030
#
# Disc length: 4073 seconds
#
# Revision: 1
# Processed by: cddbd v1.5.2PL0 Copyright (c) Steve Scherf et al.
# Submitted via: dBpowerAMP V4.0
#
DISCID=370fe714
DTITLE=Various Artist - Hott Country Volume 252 Can
DYEAR=2017
DGENRE=Country
TTITLE0=Rascal Flatts - Yours If You Want It
TTITLE1=Lady Antebellum - You Look Good
TTITLE2=Cole Swindell - Flatliner
TTITLE3=Dallas Smith - Side Effects
TTITLE4=Easton Corbin - A Girl Like You
TTITLE5=David James - What If I Don't
TTITLE6=Drew Baldridge ft. Emily Weisband - Rebound
TTITLE7=Aaron Pritchett - When A Momma's Boy Meets A Daddy's Girl
TTITLE8=Midland - Drinkin' Problem
TTITLE9=Madeline Merlo - Over And Over
TTITLE10=Kane Brown - What Ifs
TTITLE11=Bucko and Toad - Country Strong
TTITLE12=Frankie Ballard - You'll Accomp'ny Me
TTITLE13=Bailey Bryan - Own It
TTITLE14=Kristian Bush - Sing Along
TTITLE15=Adam Craig - Just A Phase
TTITLE16=Genevieve Fisher - Take It On Home
TTITLE17=James Dupre - Stoned To Death
TTITLE18=Brooke Eden - Act Like You Don't
TTITLE19=Scott Brothers, The ft. Eric Paslay - My House
EXTD=
EXTT0=
EXTT1=
EXTT2=
EXTT3=
EXTT4=
EXTT5=
EXTT6=
EXTT7=
EXTT8=
EXTT9=
EXTT10=
EXTT11=
EXTT12=
EXTT13=
EXTT14=
EXTT15=
EXTT16=
EXTT17=
EXTT18=
EXTT19=
PLAYORDER=
